<svg width="2645" height="2588" viewBox="0 0 2645 2588" fill="none" xmlns="http://www.w3.org/2000/svg">
<path d="M1614.5 921.973L1666.05 981.89L1544.11 1097.48L1478.24 1024.33C1428.72 1047.3 1373.91 1061.28 1313.57 1061.28C1089.58 1061.28 921.641 880.28 921.641 675.318C921.641 470.354 1089.58 293.849 1313.57 293.849C1537.58 293.849 1706.51 470.354 1706.51 675.318C1706.51 768.189 1672.58 855.316 1614.5 921.973ZM1313.57 895.761C1328.91 895.761 1344.25 893.514 1358.58 890.268L1254.25 773.681L1380.45 657.094L1494.59 788.914C1514.45 757.204 1525.26 715.761 1525.26 675.568C1525.26 552.489 1435.26 459.619 1313.32 459.619C1192.65 459.619 1101.39 552.24 1101.39 675.568C1101.64 793.152 1192.9 895.761 1313.57 895.761Z" fill="#222222"/>
<path d="M1501.62 2036.89H1141.37L1091.84 2152.48H900.771L1220.31 1411.27H1421.18L1741.72 2152.48H1549.64L1501.62 2036.89ZM1439.03 1890.85L1322.63 1613.98L1203.96 1890.85H1439.03Z" fill="#222222"/>
<path d="M1760.57 1163.4H884.434V1313.68H1760.57V1163.4Z" fill="#222222"/>
<path d="M2493.41 0H152.349H1.25701H0V150.291H1.25701V2576.16H152.349H361.265V2425.87H152.349V150.291H2493.41V2425.87H2284.75V2576.16H2493.41H2644.75V150.291V0H2493.41Z" fill="#222222"/>
<path d="M451.267 2385.92C451.267 2384.93 451.518 2384.18 452.272 2383.43C453.027 2382.68 453.781 2382.43 454.787 2382.43H519.146C532.973 2382.43 546.046 2384.92 558.113 2390.17C570.181 2395.41 580.739 2402.4 589.789 2411.14C598.84 2420.13 606.131 2430.36 611.662 2442.34C617.192 2454.33 619.958 2467.06 620.21 2480.54C620.712 2494.77 617.947 2508 612.667 2520.48C607.137 2532.97 599.846 2543.7 590.293 2552.94C580.99 2562.18 569.929 2569.42 557.359 2574.91C544.789 2580.15 531.465 2582.9 517.135 2582.9H455.038C454.032 2582.9 453.279 2582.65 452.524 2581.9C451.77 2581.15 451.518 2580.4 451.518 2579.4V2385.92H451.267ZM488.223 2546.7H519.146C527.944 2546.7 536.241 2544.95 544.034 2541.71C551.828 2538.46 558.616 2533.72 564.398 2527.98C570.181 2522.23 574.957 2515.49 578.225 2507.75C581.494 2500.01 583.253 2491.78 583.253 2483.04C583.253 2474.3 581.494 2466.06 578.225 2458.32C574.957 2450.59 570.181 2443.85 564.398 2438.1C558.616 2432.36 551.828 2427.61 544.034 2424.37C536.241 2421.12 527.944 2419.38 519.146 2419.38H488.223V2546.7Z" fill="#222222"/>
<path d="M723.788 2481.81C723.788 2467.09 726.554 2453.36 732.085 2440.62C737.616 2427.89 744.906 2416.91 754.208 2407.67C763.511 2398.43 774.572 2391.19 787.143 2385.95C799.96 2380.71 813.536 2378.21 828.122 2378.46C842.198 2378.71 855.273 2381.2 867.589 2386.45C879.913 2391.44 890.719 2398.43 900.023 2407.42C901.533 2408.92 901.533 2410.41 900.273 2411.91L881.924 2435.63C881.416 2436.63 880.414 2437.13 879.405 2437.13C878.403 2437.13 877.394 2436.87 876.643 2435.88C870.61 2428.89 863.067 2423.15 854.514 2418.91C845.97 2414.66 836.666 2412.66 826.862 2412.91C817.816 2412.91 809.264 2414.91 801.22 2418.65C793.176 2422.4 786.134 2427.64 780.103 2433.88C774.069 2440.12 769.544 2447.61 766.025 2456.1C762.505 2464.59 760.744 2473.58 760.744 2483.06C760.744 2492.55 762.505 2501.29 766.276 2509.78C770.046 2518.26 774.823 2525.51 781.108 2531.74C787.143 2537.99 794.436 2542.98 802.48 2546.73C810.524 2550.47 819.319 2552.21 828.372 2552.21C835.915 2551.97 842.957 2550.72 849.741 2547.98C856.533 2545.23 862.816 2541.73 868.599 2536.99C874.381 2532.5 879.154 2527 883.176 2520.76C887.198 2514.52 890.218 2507.78 892.229 2500.54H835.915C834.906 2500.54 834.154 2500.04 833.654 2499.29C833.145 2498.54 833.145 2497.54 833.904 2496.54L852.253 2469.58C854.773 2466.09 858.035 2464.34 862.057 2464.34H930.445C930.946 2467.59 931.447 2470.83 931.697 2473.83C931.948 2476.82 931.948 2480.07 931.948 2483.32C931.697 2497.79 928.935 2511.27 923.403 2524C917.871 2536.49 910.328 2547.47 900.774 2556.96C891.22 2566.2 880.164 2573.68 867.339 2578.93C854.514 2584.18 840.938 2586.92 826.361 2586.92C812.034 2586.92 798.458 2584.18 785.884 2578.68C773.315 2573.19 762.253 2565.7 753.203 2556.21C743.901 2546.73 736.862 2535.74 731.583 2522.76C726.554 2510.27 723.788 2496.54 723.788 2481.81Z" fill="#222222"/>
<path d="M1033.77 2385.43C1033.77 2384.43 1034.02 2383.67 1034.77 2382.93C1035.53 2382.18 1036.28 2381.93 1037.28 2381.93H1162.48C1166.25 2381.93 1169.52 2383.43 1172.04 2386.43L1193.41 2414.13C1194.16 2415.13 1194.41 2415.88 1193.91 2416.88C1193.41 2417.64 1192.65 2418.13 1191.39 2418.13H1127.04V2578.91C1127.04 2581.15 1125.78 2582.4 1123.52 2582.4H1093.59C1091.33 2582.4 1090.08 2581.15 1090.08 2578.91V2418.13H1037.03C1036.03 2418.13 1035.27 2417.88 1034.52 2417.13C1033.77 2416.38 1033.51 2415.64 1033.51 2414.64V2385.43H1033.77Z" fill="#222222"/>
<path d="M1197.93 2578.9L1346.25 2386.92C1348.77 2383.93 1352.03 2382.43 1355.81 2382.43H1383.21C1385.47 2382.43 1386.73 2383.67 1386.73 2385.92V2579.66C1386.73 2581.9 1385.47 2583.15 1383.21 2583.15H1355.81C1352.03 2583.15 1348.77 2581.65 1346.25 2578.66L1296.23 2514L1245.95 2578.66C1243.43 2581.65 1240.16 2583.15 1236.39 2583.15H1199.69C1198.68 2583.15 1197.93 2582.65 1197.43 2581.9C1196.92 2580.9 1197.18 2579.9 1197.93 2578.9ZM1320.11 2482.79L1349.77 2521.23V2444.34L1320.11 2482.79Z" fill="#222222"/>
<path d="M1431.49 2382.43H1461.15C1463.67 2382.43 1464.92 2383.67 1464.92 2385.92V2546.7H1545.63C1546.88 2546.7 1547.64 2547.2 1548.14 2548.2C1548.64 2549.2 1548.64 2549.94 1547.89 2550.69L1526.27 2578.4C1523.76 2581.4 1520.73 2582.9 1516.96 2582.9H1431.24C1430.23 2582.9 1429.48 2582.65 1428.72 2581.9C1427.96 2581.15 1427.71 2580.4 1427.71 2579.4V2385.67C1427.71 2384.67 1427.96 2383.93 1428.72 2383.18C1429.73 2382.93 1430.48 2382.43 1431.49 2382.43Z" fill="#222222"/>
<path d="M1651.71 2579.66V2385.92C1651.71 2384.93 1651.96 2384.18 1652.72 2383.43C1653.47 2382.68 1654.23 2382.43 1655.23 2382.43H1682.64C1686.41 2382.43 1689.68 2383.93 1692.19 2386.92L1840.77 2578.9C1841.27 2579.9 1841.27 2580.65 1841.02 2581.65C1840.51 2582.4 1839.76 2582.9 1838.5 2582.9H1801.81C1798.03 2582.9 1794.76 2581.4 1792.25 2578.4L1742.22 2513.74L1691.94 2578.4C1689.43 2581.4 1686.16 2582.9 1682.38 2582.9H1654.98C1653.98 2582.9 1653.22 2582.65 1652.47 2581.9C1651.97 2581.4 1651.71 2580.65 1651.71 2579.66ZM1688.67 2444.34V2521.23L1718.34 2482.79L1688.67 2444.34Z" fill="#222222"/>
<path d="M1863.39 2385.92C1863.39 2384.93 1863.64 2384.18 1864.4 2383.43C1865.15 2382.68 1865.9 2382.43 1866.91 2382.43H1931.27C1945.09 2382.43 1958.17 2384.92 1970.23 2390.17C1982.3 2395.41 1992.86 2402.4 2001.91 2411.14C2010.96 2420.13 2018.25 2430.36 2023.78 2442.34C2029.31 2454.33 2032.08 2467.06 2032.33 2480.54C2032.83 2494.77 2030.07 2508 2024.79 2520.48C2019.25 2532.97 2011.97 2543.7 2002.42 2552.94C1993.11 2562.18 1982.05 2569.42 1969.48 2574.91C1956.91 2580.15 1943.58 2582.9 1929.25 2582.9H1867.16C1866.15 2582.9 1865.4 2582.65 1864.65 2581.9C1863.89 2581.15 1863.64 2580.4 1863.64 2579.4V2385.92H1863.39ZM1900.34 2546.7H1931.27C1940.07 2546.7 1948.36 2544.95 1956.16 2541.71C1963.95 2538.46 1970.73 2533.72 1976.52 2527.98C1982.3 2522.23 1987.08 2515.49 1990.34 2507.75C1993.61 2500.01 1995.37 2491.78 1995.37 2483.04C1995.37 2474.3 1993.61 2466.06 1990.34 2458.32C1987.08 2450.59 1982.3 2443.85 1976.52 2438.1C1970.73 2432.36 1963.95 2427.61 1956.16 2424.37C1948.36 2421.12 1940.07 2419.38 1931.27 2419.38H1900.34V2546.7Z" fill="#222222"/>
<path d="M2060.24 2441.1C2060.24 2432.12 2062 2423.88 2065.77 2416.14C2069.54 2408.4 2074.57 2401.91 2081.11 2396.42C2087.64 2390.93 2094.93 2386.43 2103.74 2383.19C2112.28 2379.94 2121.33 2378.2 2130.89 2378.2C2145.97 2378.2 2158.79 2380.94 2170.1 2386.19C2181.16 2391.42 2189.46 2397.42 2195 2404.41C2196.25 2406.15 2196.25 2407.66 2194.74 2408.9L2174.88 2429.62C2174.13 2430.37 2173.12 2430.87 2172.12 2430.87C2171.11 2430.87 2170.1 2430.37 2169.35 2429.37C2167.59 2427.38 2165.57 2425.63 2162.81 2423.63C2160.3 2421.63 2157.28 2419.88 2153.76 2418.39C2150.5 2416.89 2146.72 2415.39 2142.95 2414.65C2139.18 2413.65 2135.16 2413.14 2131.14 2413.14C2126.36 2413.14 2121.83 2413.89 2118.06 2415.39C2114.04 2416.89 2110.77 2418.64 2108.01 2420.88C2105.24 2423.13 2103.23 2425.88 2101.72 2428.87C2100.21 2431.87 2099.46 2435.12 2099.46 2438.61C2099.46 2444.1 2101.22 2448.85 2104.99 2452.84C2108.76 2456.83 2114.04 2459.58 2121.33 2461.08L2149.49 2466.57C2158.79 2468.32 2166.83 2471.07 2173.88 2474.81C2180.91 2478.55 2186.69 2483.05 2191.47 2488.04C2196.25 2493.28 2199.77 2499.02 2202.28 2505.27C2204.8 2511.76 2206.05 2518.5 2206.05 2525.49C2206.05 2533.23 2204.55 2540.72 2201.28 2548.21C2198.01 2555.7 2193.48 2562.44 2187.2 2568.18C2180.91 2574.17 2173.37 2578.91 2164.32 2582.41C2155.27 2585.9 2144.96 2587.65 2133.15 2587.65C2124.85 2587.65 2117.06 2586.9 2110.02 2585.16C2102.73 2583.41 2096.19 2581.16 2090.41 2578.42C2084.63 2575.67 2079.35 2572.68 2075.07 2569.17C2070.55 2565.94 2067.03 2562.44 2064.01 2559.2C2062.76 2557.95 2062.76 2556.44 2064.01 2554.7L2082.12 2531.48C2082.62 2530.48 2083.62 2529.98 2084.63 2529.98C2085.63 2529.98 2086.64 2530.23 2087.39 2530.98C2090.16 2533.48 2093.17 2535.97 2096.44 2538.47C2099.71 2540.97 2103.23 2543.47 2107 2545.46C2110.77 2547.46 2115.05 2549.21 2119.32 2550.7C2123.85 2551.95 2128.37 2552.7 2133.4 2552.7C2143.95 2552.7 2152.01 2550.46 2157.53 2545.71C2163.06 2541.22 2165.83 2535.22 2165.83 2527.99C2165.83 2522.24 2163.82 2517.25 2159.54 2513.01C2155.52 2508.76 2149.24 2505.76 2141.19 2504.27L2113.03 2498.53C2096.94 2495.28 2083.87 2488.79 2074.32 2478.81C2065.02 2469.07 2060.24 2456.59 2060.24 2441.1Z" fill="#222222"/>
<path d="M656.919 2382.43C656.919 2382.43 690.356 2417.13 690.356 2417.63V2579.4C690.356 2581.65 689.099 2582.9 686.585 2582.9H656.919C655.913 2582.9 655.159 2582.65 654.405 2581.9C653.651 2581.15 653.399 2580.4 653.399 2579.4V2385.67C653.399 2384.67 653.651 2383.93 654.405 2383.18C655.159 2382.93 655.913 2382.43 656.919 2382.43Z" fill="#222222"/>
<path d="M968.906 2382.43C968.906 2382.43 1002.34 2417.13 1002.34 2417.63V2579.4C1002.34 2581.65 1001.09 2582.9 998.577 2582.9H968.906C967.904 2582.9 967.145 2582.65 966.394 2581.9C965.643 2581.15 965.385 2580.4 965.385 2579.4V2385.67C965.385 2384.67 965.643 2383.93 966.394 2383.18C966.895 2382.93 967.904 2382.43 968.906 2382.43Z" fill="#222222"/>
</svg>
